<svg width="346" height="189" viewBox="0 0 346 189" fill="none" xmlns="http://www.w3.org/2000/svg">
<path d="M68.6203 173.98C55.5599 173.993 42.9299 168.268 35.347 157.634C28.2494 147.681 22.3486 137.324 19.9668 126.201C16.2545 108.863 23.1214 89.0432 42.5022 79.4966C57.7132 72.0081 77.1724 72.1574 94.3528 67.7526C135.99 57.0741 159.51 21.281 200.986 10.2373C232.977 1.71645 270.423 10.6921 293.943 29.2409C317.463 47.7897 327.929 74.4445 326.936 100.193C326.215 118.878 319.918 137.157 310.527 154.507C303.789 166.956 290.227 173.766 276.071 173.78L68.6203 173.98Z" fill="#D5EEEE"/>
<path d="M238.003 173.978C251.586 173.992 264.816 167.873 272.003 156.347C276.733 148.761 280.547 140.88 282.218 132.498C285.22 117.444 279.668 100.235 264 91.9462C251.703 85.4441 235.971 85.5738 222.082 81.7493C188.42 72.4775 169.406 41.3997 135.875 31.8109C110.012 24.4125 79.7394 32.2057 60.7248 48.311C41.7101 64.4162 33.249 87.5596 34.0521 109.916C34.5859 124.774 38.9005 139.337 45.4552 153.256C51.6993 166.514 65.7567 173.799 80.4121 173.814L238.003 173.978Z" fill="#B7E2E2"/>
<path d="M254.614 87.5581V99.0025H121.42V87.5581C121.42 82.9351 125.834 79.189 131.258 79.189H244.771C250.206 79.1802 254.614 82.9351 254.614 87.5581Z" fill="#1DBDD6"/>
<path d="M254.614 140.575V180.252C254.614 184.531 250.2 188 244.771 188H131.258C125.828 188 121.42 184.531 121.42 180.252V98.8525H254.614V140.575Z" fill="#F7F7F8"/>
<path d="M159.047 91.5161C160.882 91.5161 162.369 89.9391 162.369 87.9937C162.369 86.0483 160.882 84.4712 159.047 84.4712C157.212 84.4712 155.725 86.0483 155.725 87.9937C155.725 89.9391 157.212 91.5161 159.047 91.5161Z" fill="#9EE7F2"/>
<path d="M159.022 72H159.069C159.63 72 160.167 72.2226 160.563 72.6189C160.959 73.0151 161.182 73.5525 161.182 74.1129V87.42C161.182 87.9811 160.959 88.5193 160.562 88.9161C160.166 89.3129 159.627 89.5358 159.066 89.5358H159.019C158.459 89.5358 157.921 89.3132 157.525 88.917C157.129 88.5207 156.906 87.9833 156.906 87.4229V74.1129C156.906 73.8352 156.961 73.5602 157.067 73.3036C157.174 73.0471 157.33 72.814 157.526 72.6178C157.723 72.4216 157.956 72.266 158.213 72.16C158.469 72.054 158.744 71.9996 159.022 72Z" fill="#00829B"/>
<path d="M141.807 91.5161C143.642 91.5161 145.129 89.9391 145.129 87.9937C145.129 86.0483 143.642 84.4712 141.807 84.4712C139.972 84.4712 138.484 86.0483 138.484 87.9937C138.484 89.9391 139.972 91.5161 141.807 91.5161Z" fill="#9EE7F2"/>
<rect x="121.883" y="79.5039" width="132.423" height="108.293" rx="7.20972" stroke="#00829B" stroke-width="0.882823"/>
<path d="M141.828 72H141.784C140.615 72 139.668 72.9473 139.668 74.1158V87.42C139.668 88.5885 140.615 89.5358 141.784 89.5358H141.828C142.996 89.5358 143.944 88.5885 143.944 87.42V74.1158C143.944 72.9473 142.996 72 141.828 72Z" fill="#00829B"/>
<path d="M177.842 91.5161C179.677 91.5161 181.164 89.9391 181.164 87.9937C181.164 86.0483 179.677 84.4712 177.842 84.4712C176.007 84.4712 174.52 86.0483 174.52 87.9937C174.52 89.9391 176.007 91.5161 177.842 91.5161Z" fill="#9EE7F2"/>
<path d="M177.863 72H177.819C176.65 72 175.703 72.9473 175.703 74.1158V87.42C175.703 88.5885 176.65 89.5358 177.819 89.5358H177.863C179.032 89.5358 179.979 88.5885 179.979 87.42V74.1158C179.979 72.9473 179.032 72 177.863 72Z" fill="#00829B"/>
<path d="M196.637 91.5161C198.472 91.5161 199.959 89.9391 199.959 87.9937C199.959 86.0483 198.472 84.4712 196.637 84.4712C194.802 84.4712 193.314 86.0483 193.314 87.9937C193.314 89.9391 194.802 91.5161 196.637 91.5161Z" fill="#9EE7F2"/>
<path d="M196.614 72H196.661C197.221 72 197.759 72.2226 198.155 72.6189C198.551 73.0151 198.774 73.5525 198.774 74.1129V87.42C198.774 87.9811 198.551 88.5193 198.154 88.9161C197.757 89.3129 197.219 89.5358 196.658 89.5358H196.611C196.051 89.5358 195.513 89.3132 195.117 88.917C194.721 88.5207 194.498 87.9833 194.498 87.4229V74.1129C194.498 73.8352 194.553 73.5602 194.659 73.3036C194.766 73.0471 194.921 72.814 195.118 72.6178C195.314 72.4216 195.548 72.266 195.804 72.16C196.061 72.054 196.336 71.9996 196.614 72Z" fill="#00829B"/>
<path d="M215.432 91.5161C217.267 91.5161 218.754 89.9391 218.754 87.9937C218.754 86.0483 217.267 84.4712 215.432 84.4712C213.597 84.4712 212.109 86.0483 212.109 87.9937C212.109 89.9391 213.597 91.5161 215.432 91.5161Z" fill="#9EE7F2"/>
<path d="M215.409 72H215.456C216.016 72 216.554 72.2226 216.95 72.6189C217.346 73.0151 217.569 73.5525 217.569 74.1129V87.42C217.569 87.6978 217.514 87.973 217.408 88.2297C217.301 88.4864 217.146 88.7196 216.949 88.9161C216.753 89.1126 216.519 89.2684 216.263 89.3748C216.006 89.4811 215.731 89.5358 215.453 89.5358H215.406C214.845 89.5358 214.308 89.3132 213.912 88.917C213.516 88.5207 213.293 87.9833 213.293 87.4229V74.1129C213.293 73.8352 213.348 73.5602 213.454 73.3036C213.56 73.0471 213.716 72.814 213.913 72.6178C214.109 72.4216 214.343 72.266 214.599 72.16C214.856 72.054 215.131 71.9996 215.409 72Z" fill="#00829B"/>
<path d="M234.227 91.5161C236.062 91.5161 237.549 89.9391 237.549 87.9937C237.549 86.0483 236.062 84.4712 234.227 84.4712C232.392 84.4712 230.904 86.0483 230.904 87.9937C230.904 89.9391 232.392 91.5161 234.227 91.5161Z" fill="#9EE7F2"/>
<path d="M234.252 72H234.208C233.039 72 232.092 72.9473 232.092 74.1158V87.42C232.092 88.5885 233.039 89.5358 234.208 89.5358H234.252C235.42 89.5358 236.368 88.5885 236.368 87.42V74.1158C236.368 72.9473 235.42 72 234.252 72Z" fill="#00829B"/>
<path d="M141.808 114.196H129.346V124.384H141.808V114.196Z" fill="#E3E7EC"/>
<path d="M141.808 130.384H129.346V140.572H141.808V130.384Z" fill="#E3E7EC"/>
<path d="M141.808 146.575H129.346V156.763H141.808V146.575Z" fill="#E3E7EC"/>
<path d="M141.808 162.763H129.346V172.951H141.808V162.763Z" fill="#E3E7EC"/>
<path d="M159.287 114.196H146.824V124.384H159.287V114.196Z" fill="#E3E7EC"/>
<path d="M159.287 130.384H146.824V140.572H159.287V130.384Z" fill="#EBA95D"/>
<path d="M159.287 146.575H146.824V156.763H159.287V146.575Z" fill="#E3E7EC"/>
<path d="M159.287 162.763H146.824V172.951H159.287V162.763Z" fill="#E3E7EC"/>
<path d="M176.767 114.196H164.305V124.384H176.767V114.196Z" fill="#E3E7EC"/>
<path d="M176.767 130.384H164.305V140.572H176.767V130.384Z" fill="#E3E7EC"/>
<path d="M176.767 146.575H164.305V156.763H176.767V146.575Z" fill="#E3E7EC"/>
<path d="M176.767 162.763H164.305V172.951H176.767V162.763Z" fill="#E3E7EC"/>
<path d="M194.25 114.196H181.787V124.384H194.25V114.196Z" fill="#E3E7EC"/>
<path d="M194.25 130.384H181.787V140.572H194.25V130.384Z" fill="#E3E7EC"/>
<path d="M194.25 146.575H181.787V156.763H194.25V146.575Z" fill="#E3E7EC"/>
<path d="M194.25 162.763H181.787V172.951H194.25V162.763Z" fill="#E3E7EC"/>
<path d="M211.73 114.196H199.268V124.384H211.73V114.196Z" fill="#E3E7EC"/>
<path d="M211.73 130.384H199.268V140.572H211.73V130.384Z" fill="#E3E7EC"/>
<path d="M211.73 146.575H199.268V156.763H211.73V146.575Z" fill="#E3E7EC"/>
<path d="M211.73 162.763H199.268V172.951H211.73V162.763Z" fill="#E3E7EC"/>
<path d="M229.211 146.575H216.748V156.763H229.211V146.575Z" fill="#9EE7F2"/>
<path d="M229.211 114.196H216.748V124.384H229.211V114.196Z" fill="#9EE7F2"/>
<path d="M229.211 130.384H216.748V140.572H229.211V130.384Z" fill="#9EE7F2"/>
<path d="M229.211 162.763H216.748V172.951H229.211V162.763Z" fill="#9EE7F2"/>
<path d="M246.691 162.763H234.229V172.951H246.691V162.763Z" fill="#9EE7F2"/>
<path d="M246.691 114.196H234.229V124.384H246.691V114.196Z" fill="#9EE7F2"/>
<path d="M246.691 130.384H234.229V140.572H246.691V130.384Z" fill="#9EE7F2"/>
<path d="M254.748 98.6025H121.441V99.4854H254.748V98.6025Z" fill="#00829B"/>
<path d="M246.691 146.575H234.229V156.763H246.691V146.575Z" fill="#9EE7F2"/>
<path d="M143.286 131.479L124.313 133.107C119.474 138.823 112.757 142.627 105.366 143.838C97.9757 145.048 90.3956 143.585 83.9861 139.712C77.5767 135.838 72.7575 129.807 70.3932 122.701C68.029 115.594 68.2745 107.878 71.0857 100.937C73.8969 93.9954 79.0898 88.2829 85.7325 84.8244C92.3752 81.3659 100.033 80.3878 107.332 82.0656C114.631 83.7435 121.093 87.9674 125.558 93.9794C130.024 99.9915 132.201 107.398 131.699 114.87L143.286 131.479Z" fill="#DF851C"/>
<path d="M142.36 131.045L124.27 132.597L124.059 132.616L123.923 132.777C119.163 138.4 112.554 142.143 105.284 143.333C98.013 144.524 90.556 143.085 84.2506 139.274C77.9452 135.463 73.2043 129.53 70.8784 122.539C68.5526 115.548 68.7941 107.958 71.5596 101.129C74.3252 94.3 79.4337 88.6803 85.9686 85.2779C92.5035 81.8756 100.037 80.9134 107.217 82.564C114.398 84.2145 120.755 88.3699 125.148 94.2843C129.541 100.199 131.683 107.485 131.189 114.836L131.177 115.016L131.279 115.163L142.36 131.045Z" fill="#EBA95D" stroke="#9F631D" stroke-width="1.02262"/>
<path d="M122.575 123.804C128.679 111.471 123.629 96.5246 111.296 90.4204C98.9629 84.3161 84.0164 89.3657 77.9121 101.699C71.8079 114.032 76.8574 128.979 89.1907 135.083C101.524 141.187 116.47 136.138 122.575 123.804Z" fill="white"/>
<path d="M89.2458 106.355C89.1182 105.688 89.6293 105.07 90.3082 105.07H110.686C111.362 105.07 111.872 105.683 111.749 106.348L108.43 124.331C108.336 124.844 107.888 125.216 107.367 125.216H93.7478C93.2288 125.216 92.7829 124.848 92.6854 124.338L89.2458 106.355Z" fill="#00829B"/>
<path d="M88.9274 106.355C88.7999 105.688 89.3109 105.07 89.9898 105.07H110.367C111.043 105.07 111.554 105.683 111.431 106.348L108.112 124.331C108.017 124.844 107.57 125.216 107.048 125.216H93.4294C92.9104 125.216 92.4645 124.848 92.367 124.338L88.9274 106.355Z" fill="#1DBDD6"/>
<path d="M87.5996 102.637C87.5996 102.338 87.8417 102.096 88.1404 102.096H112.072C112.371 102.096 112.613 102.338 112.613 102.637V104.124C112.613 104.273 112.492 104.394 112.343 104.394H87.87C87.7207 104.394 87.5996 104.273 87.5996 104.124V102.637Z" fill="#1DBDD6"/>
<path d="M89.7637 101.555C89.7637 101.406 89.8847 101.285 90.0341 101.285H110.18C110.329 101.285 110.45 101.406 110.45 101.555V102.096H89.7637V101.555Z" fill="#00829B"/>
<path d="M97.4707 101.285V99.6621H102.947V101.285" stroke="#00829B" stroke-width="1.08166"/>
<path fill-rule="evenodd" clip-rule="evenodd" d="M96.1178 121.295C95.8241 121.35 95.5419 121.156 95.4874 120.862L93.251 108.811C93.1965 108.517 93.3904 108.235 93.6841 108.18C93.9778 108.126 94.26 108.32 94.3145 108.613L96.5509 120.665C96.6054 120.959 96.4115 121.241 96.1178 121.295Z" fill="#00829B"/>
<path fill-rule="evenodd" clip-rule="evenodd" d="M103.689 121.295C103.982 121.35 104.265 121.156 104.319 120.862L106.556 108.811C106.61 108.517 106.416 108.235 106.123 108.18C105.829 108.126 105.547 108.32 105.492 108.613L103.256 120.665C103.201 120.959 103.395 121.241 103.689 121.295Z" fill="#00829B"/>
<path fill-rule="evenodd" clip-rule="evenodd" d="M99.9081 119.808C99.6128 119.808 99.3732 119.569 99.3729 119.274L99.3619 109.122C99.3616 108.826 99.6008 108.587 99.8963 108.586C100.192 108.586 100.431 108.825 100.431 109.121L100.442 119.272C100.443 119.568 100.203 119.807 99.9081 119.808Z" fill="#00829B"/>
<path d="M149.777 138.154L153.147 135.435M153.147 135.435L156.517 132.716M153.147 135.435L156.517 138.154M153.147 135.435L149.777 132.716" stroke="#F7F7F8" stroke-width="1.47137"/>
</svg>
