<svg width="528" height="165" viewBox="0 0 528 165" fill="none" xmlns="http://www.w3.org/2000/svg">
<path d="M478.279 163.004C398.225 163.004 375.12 163.004 256.778 163.004C138.435 163.004 117.136 163.004 49.7227 163.004C49.7227 80.6222 145.658 13.8384 264.001 13.8384C382.343 13.8384 478.279 80.6222 478.279 163.004Z" fill="#E0F5F5"/>
<path d="M342.225 81.8991L234 33L234 163L379 163L342.225 81.8991Z" fill="#D5EEEE"/>
<path d="M316.58 81.7637L234.404 32.7803L234.404 163.004L344.503 163.004L316.58 81.7637Z" fill="#C6E3E3"/>
<rect x="124.305" y="139.695" width="201.794" height="1.18386" fill="url(#paint0_linear_1635_1982)"/>
<rect x="139.104" y="125.489" width="239.462" height="1.18386" fill="url(#paint1_linear_1635_1982)"/>
<rect x="170.475" y="112.467" width="183.498" height="1.18386" fill="url(#paint2_linear_1635_1982)"/>
<rect x="327.443" y="126.673" width="13.0224" height="1.34529" transform="rotate(90 327.443 126.673)" fill="url(#paint3_linear_1635_1982)" fill-opacity="0.6"/>
<rect x="323.408" y="82.8701" width="13.0224" height="1.34529" transform="rotate(90 323.408 82.8701)" fill="url(#paint4_linear_1635_1982)"/>
<rect x="355.695" y="97.0762" width="13.0224" height="1.34529" transform="rotate(90 355.695 97.0762)" fill="url(#paint5_linear_1635_1982)" fill-opacity="0.4"/>
<rect x="330.457" y="97.0762" width="13.0224" height="1.34529" transform="rotate(90 330.457 97.0762)" fill="url(#paint6_linear_1635_1982)"/>
<rect x="310.332" y="97.0762" width="13.0224" height="1.34529" transform="rotate(90 310.332 97.0762)" fill="url(#paint7_linear_1635_1982)"/>
<rect x="186.188" y="67.4795" width="13.0224" height="1.34529" transform="rotate(90 186.188 67.4795)" fill="url(#paint8_linear_1635_1982)" fill-opacity="0.4"/>
<rect x="210.889" y="67.4795" width="13.0224" height="1.34529" transform="rotate(90 210.889 67.4795)" fill="url(#paint9_linear_1635_1982)" fill-opacity="0.4"/>
<rect x="335.516" y="67.48" width="13.0224" height="1.34529" transform="rotate(90 335.516 67.48)" fill="url(#paint10_linear_1635_1982)" fill-opacity="0.6"/>
<rect x="367.803" y="82.8701" width="13.0224" height="1.34529" transform="rotate(90 367.803 82.8701)" fill="url(#paint11_linear_1635_1982)" fill-opacity="0.4"/>
<rect x="277.668" y="126.672" width="13.0224" height="1.34529" transform="rotate(90 277.668 126.672)" fill="url(#paint12_linear_1635_1982)"/>
<rect x="277.668" y="82.8701" width="13.0224" height="1.34529" transform="rotate(90 277.668 82.8701)" fill="url(#paint13_linear_1635_1982)"/>
<rect x="235.965" y="66.2959" width="13.0224" height="1.34529" transform="rotate(90 235.965 66.2959)" fill="url(#paint14_linear_1635_1982)"/>
<rect x="274.979" y="98.2598" width="13.0224" height="1.34529" transform="rotate(90 274.979 98.2598)" fill="url(#paint15_linear_1635_1982)"/>
<rect x="219.82" y="140.879" width="13.0224" height="1.34529" transform="rotate(90 219.82 140.879)" fill="url(#paint16_linear_1635_1982)"/>
<rect x="164.664" y="140.879" width="13.0224" height="1.34529" transform="rotate(90 164.664 140.879)" fill="url(#paint17_linear_1635_1982)" fill-opacity="0.4"/>
<rect x="192.914" y="140.879" width="13.0224" height="1.34529" transform="rotate(90 192.914 140.879)" fill="url(#paint18_linear_1635_1982)" fill-opacity="0.4"/>
<rect x="163.318" y="125.489" width="13.0224" height="1.34529" transform="rotate(-90 163.318 125.489)" fill="url(#paint19_linear_1635_1982)" fill-opacity="0.4"/>
<rect x="179.461" y="98.2598" width="13.0224" height="1.34529" transform="rotate(90 179.461 98.2598)" fill="url(#paint20_linear_1635_1982)" fill-opacity="0.4"/>
<rect x="210.727" y="98.2603" width="15.3901" height="1.18386" transform="rotate(90 210.727 98.2603)" fill="url(#paint21_linear_1635_1982)" fill-opacity="0.4"/>
<rect x="197.703" y="81.6865" width="15.3901" height="1.18386" transform="rotate(90 197.703 81.6865)" fill="url(#paint22_linear_1635_1982)" fill-opacity="0.4"/>
<rect x="192.914" y="125.489" width="13.0224" height="1.34529" transform="rotate(-90 192.914 125.489)" fill="url(#paint23_linear_1635_1982)" fill-opacity="0.4"/>
<rect x="253.453" y="125.489" width="13.0224" height="1.34529" transform="rotate(-90 253.453 125.489)" fill="url(#paint24_linear_1635_1982)"/>
<rect x="339.551" y="125.489" width="13.0224" height="1.34529" transform="rotate(-90 339.551 125.489)" fill="url(#paint25_linear_1635_1982)" fill-opacity="0.4"/>
<rect x="300.537" y="142.062" width="13.0224" height="1.34529" transform="rotate(90 300.537 142.062)" fill="url(#paint26_linear_1635_1982)"/>
<rect x="230.582" y="126.673" width="13.0224" height="1.34529" transform="rotate(90 230.582 126.673)" fill="url(#paint27_linear_1635_1982)"/>
<rect x="230.582" y="82.8701" width="13.0224" height="1.34529" transform="rotate(90 230.582 82.8701)" fill="url(#paint28_linear_1635_1982)"/>
<rect x="287.086" y="67.4795" width="13.0224" height="1.34529" transform="rotate(90 287.086 67.4795)" fill="url(#paint29_linear_1635_1982)"/>
<rect x="139.104" y="97.0762" width="260.987" height="1.18386" fill="url(#paint30_linear_1635_1982)"/>
<rect x="141.793" y="66.2959" width="254.26" height="1.18386" fill="url(#paint31_linear_1635_1982)"/>
<rect x="159.281" y="81.686" width="260.987" height="1.18386" fill="url(#paint32_linear_1635_1982)"/>
<path d="M304.138 36.4019L306.367 72.7852L222.812 72.7852L224.539 35.0889C224.727 33.7527 225.052 32.6217 225.463 31.8358C225.884 31.0307 226.33 30.703 226.708 30.7026L301.289 30.7026C301.814 30.7122 302.404 31.1714 302.944 32.2081C303.476 33.2273 303.895 34.6853 304.138 36.4019Z" fill="#1DBDD6" stroke="#00829B" stroke-width="0.473543"/>
<path opacity="0.46" d="M224.932 31.1586C224.932 31.1586 228.46 53.8686 264.404 53.8686C300.348 53.8686 303.066 31.124 303.066 31.124L224.932 31.1586Z" fill="#1CA4B9"/>
<path fill-rule="evenodd" clip-rule="evenodd" d="M226.397 29.8672L301.301 29.8672C302.311 29.8836 303.107 30.7243 303.678 31.8193C304.453 34.9275 304.843 38.1451 304.843 41.3505L304.843 44.2919C304.603 42.5949 303.138 33.3489 302.631 32.3777C302.106 31.37 301.607 31.0718 301.286 31.0643L226.397 31.0643C226.228 31.0646 225.872 31.2269 225.465 32.0057C225.08 32.7435 224.052 42.9747 223.867 44.2919L223.959 39.2087C224.006 36.6214 223.941 33.9885 224.419 31.4463C224.869 30.5842 225.528 29.8681 226.397 29.8672Z" fill="#00829B"/>
<path d="M221.988 72.4229L221.988 73.9888L307.153 73.9888L307.153 72.4229L221.988 72.4229Z" fill="#00829B"/>
<path d="M285.268 82.8739C272.539 90.4502 259.624 95.0114 249.022 96.2481C243.721 96.8664 238.979 96.656 235.12 95.5604C231.259 94.4639 228.259 92.4728 226.501 89.5181C224.742 86.5634 224.422 82.9775 225.3 79.0605C226.176 75.1464 228.253 70.8777 231.324 66.5133C237.466 57.7837 247.634 48.6064 260.363 41.0301C273.092 33.4538 286.007 28.8926 296.609 27.6559C301.91 27.0376 306.652 27.248 310.511 28.3436C314.372 29.4401 317.372 31.4313 319.13 34.386C320.889 37.3407 321.209 40.9266 320.331 44.8435C319.455 48.7576 317.378 53.0263 314.307 57.3907C308.165 66.1203 297.997 75.2976 285.268 82.8739Z" fill="#DF851C" stroke="#9F631D" stroke-width="0.830391"/>
<ellipse cx="53.145" cy="22.4206" rx="53.145" ry="22.4206" transform="matrix(-0.859311 0.511454 0.511454 0.859311 305.004 13.8418)" fill="#EBA95D"/>
<path d="M238.589 76.4412C239.48 77.9377 241.097 78.9948 243.404 79.5537C245.715 80.1136 248.65 80.1537 252.033 79.6616C258.796 78.678 267.177 75.5931 275.548 70.611C283.918 65.629 290.626 59.7328 294.715 54.2579C296.761 51.5188 298.125 48.9195 298.735 46.6215C299.344 44.3272 299.186 42.4014 298.295 40.9049C297.404 39.4084 295.787 38.3513 293.48 37.7923C291.169 37.2325 288.234 37.1924 284.851 37.6845C278.089 38.6681 269.707 41.753 261.337 46.735C252.966 51.7171 246.258 57.6133 242.169 63.0882C240.123 65.8273 238.759 68.4266 238.149 70.7246C237.541 73.0189 237.699 74.9447 238.589 76.4412Z" fill="#EBA95D" stroke="#DF851C" stroke-width="1.66078"/>
<path d="M241.947 74.4419C242.505 75.3799 243.646 76.1029 245.553 76.4278C247.453 76.7516 249.946 76.6438 252.893 76.0739C258.776 74.9362 266.193 72.0115 273.714 67.5351C281.235 63.0586 287.343 57.9335 291.148 53.3051C293.054 50.9865 294.337 48.8468 294.959 47.0217C295.583 45.1905 295.491 43.8432 294.933 42.9053C294.374 41.9673 293.234 41.2443 291.327 40.9194C289.426 40.5957 286.933 40.7034 283.987 41.2733C278.104 42.411 270.687 45.3357 263.166 49.8122C255.645 54.2886 249.537 59.4137 245.732 64.0421C243.826 66.3607 242.542 68.5004 241.921 70.3255C241.297 72.1567 241.389 73.504 241.947 74.4419Z" fill="#EBA95D" stroke="#9F631D" stroke-width="2.49117"/>
<path d="M293.574 41.2678L293.5 41.1975L293.446 41.1116C288.678 33.5567 280.613 27.7848 271.911 25.0571C263.206 22.3284 253.977 22.6777 246.832 27.1875C239.696 31.6911 235.843 39.5473 234.988 48.2542C234.136 56.9187 236.268 66.3377 241.003 73.9005C241.981 74.6657 243.49 75.1899 245.509 75.3706C247.585 75.5564 250.126 75.3716 253.015 74.775C258.791 73.5823 265.863 70.7626 273.2 66.1316C280.559 61.487 286.848 56.1908 290.668 51.5041C292.584 49.1539 293.832 47.0138 294.32 45.2295C294.801 43.4725 294.525 42.1803 293.574 41.2678Z" fill="#E6D1B9" fill-opacity="0.35" stroke="#DF851C" stroke-width="1.66078"/>
<path d="M238.144 152.703H233.824V156.561H238.144V152.703Z" fill="#004A58"/>
<path d="M240.175 157.902H236.114C235.849 157.902 235.595 157.796 235.407 157.607C235.219 157.419 235.112 157.163 235.109 156.895C235.109 156.626 235.215 156.367 235.403 156.176C235.591 155.985 235.847 155.877 236.114 155.875H240.175C240.441 155.877 240.697 155.985 240.885 156.176C241.073 156.367 241.179 156.626 241.179 156.895C241.176 157.163 241.07 157.419 240.882 157.607C240.694 157.796 240.439 157.902 240.175 157.902Z" fill="#3F3F3F"/>
<path d="M236.144 155.867H235.555C233.849 155.867 232.467 157.265 232.467 158.989V159.833C232.467 161.558 233.849 162.956 235.555 162.956H236.144C237.85 162.956 239.232 161.558 239.232 159.833V158.989C239.232 157.265 237.85 155.867 236.144 155.867Z" fill="#3F3F3F"/>
<path d="M236.024 157.292H235.672C234.651 157.292 233.824 158.129 233.824 159.161V159.666C233.824 160.698 234.651 161.534 235.672 161.534H236.024C237.045 161.534 237.872 160.698 237.872 159.666V159.161C237.872 158.129 237.045 157.292 236.024 157.292Z" fill="#C1C7D0"/>
<path d="M293.041 152.703H288.721V156.561H293.041V152.703Z" fill="#004A58"/>
<path d="M295.067 157.901H291.011C290.744 157.901 290.488 157.795 290.299 157.604C290.11 157.414 290.003 157.156 290.002 156.886C290.003 156.616 290.11 156.357 290.299 156.166C290.488 155.975 290.743 155.867 291.011 155.866H295.067C295.334 155.867 295.59 155.975 295.779 156.166C295.968 156.357 296.075 156.616 296.076 156.886C296.075 157.156 295.968 157.414 295.779 157.604C295.59 157.795 295.334 157.901 295.067 157.901Z" fill="#3F3F3F"/>
<path d="M291.037 155.866H290.448C288.742 155.866 287.359 157.264 287.359 158.989V159.833C287.359 161.558 288.742 162.956 290.448 162.956H291.037C292.742 162.956 294.125 161.558 294.125 159.833V158.989C294.125 157.264 292.742 155.866 291.037 155.866Z" fill="#3F3F3F"/>
<path d="M290.921 157.292H290.568C289.548 157.292 288.721 158.129 288.721 159.161V159.666C288.721 160.698 289.548 161.534 290.568 161.534H290.921C291.941 161.534 292.768 160.698 292.768 159.666V159.161C292.768 158.129 291.941 157.292 290.921 157.292Z" fill="#C1C7D0"/>
<path d="M312.08 83.9659L311.879 85.5408L311.464 88.9028L304.136 147.843C304.058 148.472 303.756 149.05 303.286 149.47C302.816 149.89 302.21 150.121 301.583 150.122H263.971V150.045H226.483C225.814 150.046 225.169 149.8 224.667 149.352C224.166 148.905 223.843 148.288 223.761 147.617L216.45 88.9028L216.035 85.5408L215.83 83.8892H263.971V83.9659H312.08Z" fill="#1DBDD6"/>
<path d="M263.969 150.126V150.054H226.566V152.383C226.566 152.732 226.704 153.067 226.948 153.315C227.192 153.562 227.524 153.7 227.87 153.7H263.969V153.777H299.382C299.641 153.777 299.898 153.725 300.138 153.625C300.378 153.524 300.595 153.377 300.778 153.191C300.962 153.006 301.107 152.785 301.206 152.543C301.305 152.3 301.355 152.04 301.355 151.778V150.126H263.969Z" fill="#1DBDD6"/>
<path d="M263.952 150.058V150.045H226.566V150.799H263.952V150.812H301.337V150.058H263.952Z" fill="#00829B"/>
<path opacity="0.45" d="M218.525 85.5185C218.525 85.5185 222.587 121.056 263.953 121.056C305.319 121.056 308.447 85.4644 308.447 85.4644L218.525 85.5185Z" fill="#1CA4B9"/>
<path d="M313.396 77.5083H214.508C213.727 77.5083 213.094 78.1488 213.094 78.9388V84.1104C213.094 84.9004 213.727 85.5409 214.508 85.5409H313.396C314.177 85.5409 314.811 84.9004 314.811 84.1104V78.9388C314.811 78.1488 314.177 77.5083 313.396 77.5083Z" fill="#00829B"/>
<path d="M263.952 135.09H228.285L221.523 85.5456H223.38L229.9 133.213H263.952V135.09Z" fill="#1895A9"/>
<path d="M299.614 135.09H263.952V133.213H297.999L304.523 85.5456H306.38L299.614 135.09Z" fill="#1895A9"/>
<path d="M240.643 85.4666L239.416 85.6225L244.826 129.171L246.053 129.015L240.643 85.4666Z" fill="#1895A9"/>
<path d="M288.575 85.4634L283.15 129.01L284.377 129.166L289.802 85.6196L288.575 85.4634Z" fill="#1895A9"/>
<path d="M264.568 85.5409H263.332V129.088H264.568V85.5409Z" fill="#1895A9"/>
<g style="mix-blend-mode:multiply" opacity="0.46">
<path d="M311.879 85.541L311.464 88.903H216.45L216.035 85.541H311.879Z" fill="#3F3F3F"/>
</g>
<path d="M306.924 73.9883H220.43C220.03 73.9883 219.635 74.0679 219.266 74.2226C218.897 74.3774 218.561 74.6041 218.279 74.89C217.997 75.1758 217.773 75.5151 217.621 75.8885C217.468 76.2619 217.39 76.662 217.391 77.0659V77.5172H310.405C310.406 77.0542 310.317 76.5955 310.143 76.1674C309.968 75.7393 309.712 75.3502 309.389 75.0224C309.065 74.6946 308.681 74.4345 308.258 74.2571C307.835 74.0796 307.382 73.9883 306.924 73.9883Z" fill="#00829B"/>
<rect y="163.004" width="528" height="1.18386" fill="#3F3F3F"/>
<defs>
<linearGradient id="paint0_linear_1635_1982" x1="129.686" y1="140.879" x2="321.39" y2="140.879" gradientUnits="userSpaceOnUse">
<stop stop-color="#8D95A1" stop-opacity="0"/>
<stop offset="0.492539" stop-color="#8D95A1"/>
<stop offset="1" stop-color="#8D95A1" stop-opacity="0"/>
</linearGradient>
<linearGradient id="paint1_linear_1635_1982" x1="145.489" y1="126.673" x2="372.978" y2="126.673" gradientUnits="userSpaceOnUse">
<stop stop-color="#8D95A1" stop-opacity="0"/>
<stop offset="0.492539" stop-color="#8D95A1"/>
<stop offset="1" stop-color="#8D95A1" stop-opacity="0"/>
</linearGradient>
<linearGradient id="paint2_linear_1635_1982" x1="175.368" y1="113.651" x2="349.691" y2="113.651" gradientUnits="userSpaceOnUse">
<stop stop-color="#8D95A1" stop-opacity="0"/>
<stop offset="0.492539" stop-color="#8D95A1"/>
<stop offset="1" stop-color="#8D95A1" stop-opacity="0"/>
</linearGradient>
<linearGradient id="paint3_linear_1635_1982" x1="327.791" y1="128.018" x2="340.162" y2="128.018" gradientUnits="userSpaceOnUse">
<stop stop-color="#8D95A1" stop-opacity="0.69"/>
<stop offset="0.492539" stop-color="#8D95A1"/>
<stop offset="1" stop-color="#8D95A1" stop-opacity="0"/>
</linearGradient>
<linearGradient id="paint4_linear_1635_1982" x1="323.755" y1="84.2156" x2="336.127" y2="84.2156" gradientUnits="userSpaceOnUse">
<stop stop-color="#A3ABB5"/>
<stop offset="0.492539" stop-color="#A7AFB8"/>
<stop offset="1" stop-color="#8D95A1" stop-opacity="0"/>
</linearGradient>
<linearGradient id="paint5_linear_1635_1982" x1="356.043" y1="98.4216" x2="368.414" y2="98.4216" gradientUnits="userSpaceOnUse">
<stop stop-color="#8D95A1" stop-opacity="0.69"/>
<stop offset="0.492539" stop-color="#C5CED4"/>
<stop offset="1" stop-color="#8D95A1" stop-opacity="0"/>
</linearGradient>
<linearGradient id="paint6_linear_1635_1982" x1="330.804" y1="98.4216" x2="343.176" y2="98.4216" gradientUnits="userSpaceOnUse">
<stop stop-color="#B7C0C8"/>
<stop offset="0.492539" stop-color="#B4BDC5"/>
<stop offset="1" stop-color="#8D95A1" stop-opacity="0"/>
</linearGradient>
<linearGradient id="paint7_linear_1635_1982" x1="310.679" y1="98.4216" x2="323.051" y2="98.4216" gradientUnits="userSpaceOnUse">
<stop stop-color="#8D95A1" stop-opacity="0.69"/>
<stop offset="0.492539" stop-color="#C5CED4"/>
<stop offset="1" stop-color="#8D95A1" stop-opacity="0"/>
</linearGradient>
<linearGradient id="paint8_linear_1635_1982" x1="186.535" y1="68.825" x2="198.906" y2="68.825" gradientUnits="userSpaceOnUse">
<stop stop-color="#8D95A1" stop-opacity="0.69"/>
<stop offset="0.492539" stop-color="#8D95A1"/>
<stop offset="1" stop-color="#8D95A1" stop-opacity="0"/>
</linearGradient>
<linearGradient id="paint9_linear_1635_1982" x1="211.236" y1="68.825" x2="223.607" y2="68.825" gradientUnits="userSpaceOnUse">
<stop stop-color="#B6BDC4"/>
<stop offset="0.492539" stop-color="#8D95A1"/>
<stop offset="1" stop-color="#8D95A1" stop-opacity="0"/>
</linearGradient>
<linearGradient id="paint10_linear_1635_1982" x1="335.863" y1="68.8254" x2="348.234" y2="68.8254" gradientUnits="userSpaceOnUse">
<stop stop-color="#8D95A1" stop-opacity="0.69"/>
<stop offset="0.492539" stop-color="#8D95A1" stop-opacity="0.67"/>
<stop offset="1" stop-color="#8D95A1" stop-opacity="0"/>
</linearGradient>
<linearGradient id="paint11_linear_1635_1982" x1="368.15" y1="84.2156" x2="380.521" y2="84.2156" gradientUnits="userSpaceOnUse">
<stop stop-color="#8D95A1" stop-opacity="0.51"/>
<stop offset="0.492539" stop-color="#8D95A1"/>
<stop offset="1" stop-color="#8D95A1" stop-opacity="0"/>
</linearGradient>
<linearGradient id="paint12_linear_1635_1982" x1="278.015" y1="128.018" x2="290.387" y2="128.018" gradientUnits="userSpaceOnUse">
<stop stop-color="#8D95A1" stop-opacity="0.88"/>
<stop offset="0.492539" stop-color="#8D95A1"/>
<stop offset="1" stop-color="#8D95A1" stop-opacity="0"/>
</linearGradient>
<linearGradient id="paint13_linear_1635_1982" x1="278.015" y1="84.2156" x2="290.387" y2="84.2156" gradientUnits="userSpaceOnUse">
<stop stop-color="#8D95A1" stop-opacity="0.88"/>
<stop offset="0.492539" stop-color="#8D95A1"/>
<stop offset="1" stop-color="#8D95A1" stop-opacity="0"/>
</linearGradient>
<linearGradient id="paint14_linear_1635_1982" x1="236.312" y1="67.6414" x2="248.683" y2="67.6414" gradientUnits="userSpaceOnUse">
<stop stop-color="#8D95A1" stop-opacity="0.88"/>
<stop offset="0.492539" stop-color="#8D95A1"/>
<stop offset="1" stop-color="#8D95A1" stop-opacity="0"/>
</linearGradient>
<linearGradient id="paint15_linear_1635_1982" x1="275.326" y1="99.6052" x2="287.697" y2="99.6052" gradientUnits="userSpaceOnUse">
<stop stop-color="#8D95A1" stop-opacity="0.88"/>
<stop offset="0.492539" stop-color="#8D95A1"/>
<stop offset="1" stop-color="#8D95A1" stop-opacity="0"/>
</linearGradient>
<linearGradient id="paint16_linear_1635_1982" x1="220.168" y1="142.224" x2="232.539" y2="142.224" gradientUnits="userSpaceOnUse">
<stop stop-color="#8D95A1" stop-opacity="0.88"/>
<stop offset="0.492539" stop-color="#8D95A1"/>
<stop offset="1" stop-color="#8D95A1" stop-opacity="0"/>
</linearGradient>
<linearGradient id="paint17_linear_1635_1982" x1="165.011" y1="142.224" x2="177.383" y2="142.224" gradientUnits="userSpaceOnUse">
<stop stop-color="#8D95A1" stop-opacity="0.88"/>
<stop offset="0.492539" stop-color="#8D95A1"/>
<stop offset="1" stop-color="#8D95A1" stop-opacity="0"/>
</linearGradient>
<linearGradient id="paint18_linear_1635_1982" x1="193.261" y1="142.224" x2="205.633" y2="142.224" gradientUnits="userSpaceOnUse">
<stop stop-color="#8D95A1" stop-opacity="0.88"/>
<stop offset="0.492539" stop-color="#8D95A1"/>
<stop offset="1" stop-color="#8D95A1" stop-opacity="0"/>
</linearGradient>
<linearGradient id="paint19_linear_1635_1982" x1="163.666" y1="126.834" x2="176.037" y2="126.834" gradientUnits="userSpaceOnUse">
<stop stop-color="#8D95A1" stop-opacity="0.88"/>
<stop offset="0.492539" stop-color="#8D95A1"/>
<stop offset="1" stop-color="#8D95A1" stop-opacity="0"/>
</linearGradient>
<linearGradient id="paint20_linear_1635_1982" x1="179.808" y1="99.6052" x2="192.18" y2="99.6052" gradientUnits="userSpaceOnUse">
<stop stop-color="#8D95A1"/>
<stop offset="0.492539" stop-color="#8D95A1"/>
<stop offset="1" stop-color="#8D95A1" stop-opacity="0"/>
</linearGradient>
<linearGradient id="paint21_linear_1635_1982" x1="211.137" y1="99.4443" x2="225.758" y2="99.4443" gradientUnits="userSpaceOnUse">
<stop stop-color="#8D95A1"/>
<stop offset="0.492539" stop-color="#8D95A1"/>
<stop offset="1" stop-color="#8D95A1" stop-opacity="0.4"/>
</linearGradient>
<linearGradient id="paint22_linear_1635_1982" x1="198.114" y1="82.8705" x2="212.734" y2="82.8705" gradientUnits="userSpaceOnUse">
<stop stop-color="#8D95A1"/>
<stop offset="0.492539" stop-color="#8D95A1"/>
<stop offset="1" stop-color="#8D95A1" stop-opacity="0.4"/>
</linearGradient>
<linearGradient id="paint23_linear_1635_1982" x1="193.261" y1="126.834" x2="205.633" y2="126.834" gradientUnits="userSpaceOnUse">
<stop stop-color="#8D95A1" stop-opacity="0.88"/>
<stop offset="0.492539" stop-color="#8D95A1"/>
<stop offset="1" stop-color="#8D95A1" stop-opacity="0.4"/>
</linearGradient>
<linearGradient id="paint24_linear_1635_1982" x1="253.8" y1="126.834" x2="266.172" y2="126.834" gradientUnits="userSpaceOnUse">
<stop stop-color="#8D95A1" stop-opacity="0.88"/>
<stop offset="0.492539" stop-color="#8D95A1"/>
<stop offset="1" stop-color="#8D95A1" stop-opacity="0"/>
</linearGradient>
<linearGradient id="paint25_linear_1635_1982" x1="339.898" y1="126.834" x2="352.269" y2="126.834" gradientUnits="userSpaceOnUse">
<stop stop-color="#8D95A1" stop-opacity="0.77"/>
<stop offset="0.492539" stop-color="#8D95A1"/>
<stop offset="1" stop-color="#8D95A1" stop-opacity="0"/>
</linearGradient>
<linearGradient id="paint26_linear_1635_1982" x1="300.884" y1="143.408" x2="313.256" y2="143.408" gradientUnits="userSpaceOnUse">
<stop stop-color="#8D95A1" stop-opacity="0.88"/>
<stop offset="0.492539" stop-color="#8D95A1"/>
<stop offset="1" stop-color="#8D95A1" stop-opacity="0"/>
</linearGradient>
<linearGradient id="paint27_linear_1635_1982" x1="230.929" y1="128.018" x2="243.301" y2="128.018" gradientUnits="userSpaceOnUse">
<stop stop-color="#8D95A1" stop-opacity="0.77"/>
<stop offset="0.492539" stop-color="#8D95A1" stop-opacity="0.62"/>
<stop offset="1" stop-color="#8D95A1" stop-opacity="0"/>
</linearGradient>
<linearGradient id="paint28_linear_1635_1982" x1="230.929" y1="84.2156" x2="243.301" y2="84.2156" gradientUnits="userSpaceOnUse">
<stop stop-color="#8D95A1" stop-opacity="0.77"/>
<stop offset="0.492539" stop-color="#8D95A1" stop-opacity="0.62"/>
<stop offset="1" stop-color="#8D95A1" stop-opacity="0"/>
</linearGradient>
<linearGradient id="paint29_linear_1635_1982" x1="287.433" y1="68.825" x2="299.805" y2="68.825" gradientUnits="userSpaceOnUse">
<stop stop-color="#8D95A1" stop-opacity="0.77"/>
<stop offset="0.492539" stop-color="#8D95A1" stop-opacity="0.62"/>
<stop offset="1" stop-color="#8D95A1" stop-opacity="0"/>
</linearGradient>
<linearGradient id="paint30_linear_1635_1982" x1="146.063" y1="98.2602" x2="394" y2="98.2602" gradientUnits="userSpaceOnUse">
<stop stop-color="#8D95A1" stop-opacity="0"/>
<stop offset="0.492539" stop-color="#8D95A1"/>
<stop offset="1" stop-color="#8D95A1" stop-opacity="0"/>
</linearGradient>
<linearGradient id="paint31_linear_1635_1982" x1="148.573" y1="67.4799" x2="390.12" y2="67.4799" gradientUnits="userSpaceOnUse">
<stop stop-color="#8D95A1" stop-opacity="0"/>
<stop offset="0.492539" stop-color="#8D95A1"/>
<stop offset="1" stop-color="#8D95A1" stop-opacity="0"/>
</linearGradient>
<linearGradient id="paint32_linear_1635_1982" x1="166.241" y1="82.87" x2="414.178" y2="82.87" gradientUnits="userSpaceOnUse">
<stop stop-color="#8D95A1" stop-opacity="0"/>
<stop offset="0.492539" stop-color="#8D95A1"/>
<stop offset="1" stop-color="#8D95A1" stop-opacity="0"/>
</linearGradient>
</defs>
</svg>
