<svg width="125" height="26" viewBox="0 0 125 26" fill="none" xmlns="http://www.w3.org/2000/svg">
<g id="Logo_Black">
<g id="Subtract">
<path d="M3.72815e-07 15.4511L5.32255e-07 19.1141C5.44255e-07 19.3898 0.146469 19.6446 0.384233 19.7825L10.9294 25.8966C11.1672 26.0345 11.4602 26.0345 11.6979 25.8966L22.2431 19.7825C22.4809 19.6446 22.6274 19.3898 22.6274 19.1141V14.1896L11.3137 20.7727L4.61079 16.8863L4.61079 12.7777L3.72815e-07 15.4511Z" fill="#00B0D1"/>
<path d="M11.3137 5.2273L18.0166 9.11365V13.2841L22.6274 10.6107V6.88586C22.6274 6.61015 22.4809 6.35538 22.2431 6.21753L11.6979 0.103393C11.4602 -0.0344644 11.1672 -0.0344644 10.9294 0.103393L0.384233 6.21753C0.146469 6.35538 -1.20008e-08 6.61015 0 6.88586L2.18065e-07 11.8958L11.3137 5.2273Z" fill="#00B0D1"/>
</g>
<path id="ReportPortal" d="M116.826 17.5291V6.36475H119.175V17.5291H116.826Z" fill="#3F3F3F"/>
<path id="ReportPortal_2" d="M94.9199 17.5288V9.43385H97.1631V11.7209L96.8469 11.0588C97.0878 10.4871 97.4742 10.0558 98.0062 9.76486C98.5381 9.46394 99.1854 9.31348 99.9482 9.31348V11.4801C99.8479 11.4701 99.7575 11.4651 99.6772 11.4651C99.5969 11.4551 99.5116 11.4501 99.4213 11.4501C98.779 11.4501 98.2571 11.6356 97.8556 12.0068C97.4642 12.3679 97.2685 12.9346 97.2685 13.707V17.5288H94.9199Z" fill="#3F3F3F"/>
<path id="ReportPortal_3" d="M89.5754 17.6491C88.7122 17.6491 87.9444 17.4686 87.272 17.1075C86.6096 16.7463 86.0826 16.2548 85.6912 15.6329C85.3098 15.001 85.1191 14.2838 85.1191 13.4813C85.1191 12.6688 85.3098 11.9516 85.6912 11.3297C86.0826 10.6977 86.6096 10.2062 87.272 9.85514C87.9444 9.49403 88.7122 9.31348 89.5754 9.31348C90.4285 9.31348 91.1912 9.49403 91.8637 9.85514C92.5361 10.2062 93.0631 10.6927 93.4445 11.3146C93.8258 11.9365 94.0165 12.6588 94.0165 13.4813C94.0165 14.2838 93.8258 15.001 93.4445 15.6329C93.0631 16.2548 92.5361 16.7463 91.8637 17.1075C91.1912 17.4686 90.4285 17.6491 89.5754 17.6491ZM89.5754 15.7232C89.9668 15.7232 90.3181 15.6329 90.6292 15.4524C90.9403 15.2718 91.1862 15.016 91.3669 14.685C91.5475 14.344 91.6379 13.9427 91.6379 13.4813C91.6379 13.0099 91.5475 12.6086 91.3669 12.2776C91.1862 11.9466 90.9403 11.6908 90.6292 11.5102C90.3181 11.3297 89.9668 11.2394 89.5754 11.2394C89.1839 11.2394 88.8327 11.3297 88.5215 11.5102C88.2104 11.6908 87.9595 11.9466 87.7688 12.2776C87.5881 12.6086 87.4978 13.0099 87.4978 13.4813C87.4978 13.9427 87.5881 14.344 87.7688 14.685C87.9595 15.016 88.2104 15.2718 88.5215 15.4524C88.8327 15.6329 89.1839 15.7232 89.5754 15.7232Z" fill="#3F3F3F"/>
<path id="ReportPortal_4" d="M80.6331 17.6491C79.9506 17.6491 79.3535 17.4987 78.8416 17.1977C78.3297 16.8968 77.9283 16.4404 77.6372 15.8285C77.3562 15.2066 77.2157 14.4242 77.2157 13.4813C77.2157 12.5284 77.3512 11.746 77.6222 11.1341C77.8932 10.5222 78.2846 10.0658 78.7964 9.76487C79.3083 9.46394 79.9205 9.31348 80.6331 9.31348C81.3959 9.31348 82.0784 9.48902 82.6806 9.8401C83.2928 10.1811 83.7746 10.6626 84.1258 11.2845C84.4872 11.9065 84.6678 12.6387 84.6678 13.4813C84.6678 14.3339 84.4872 15.0712 84.1258 15.6931C83.7746 16.315 83.2928 16.7965 82.6806 17.1376C82.0784 17.4786 81.3959 17.6491 80.6331 17.6491ZM75.8457 20.4477L75.8457 9.43385H78.0889V11.0889L78.0437 13.4963L78.1943 15.8887V20.4477H75.8457ZM80.2267 15.7232C80.6181 15.7232 80.9643 15.6329 81.2654 15.4524C81.5766 15.2718 81.8225 15.016 82.0031 14.685C82.1938 14.344 82.2892 13.9427 82.2892 13.4813C82.2892 13.0099 82.1938 12.6086 82.0031 12.2776C81.8225 11.9466 81.5766 11.6908 81.2654 11.5102C80.9643 11.3297 80.6181 11.2394 80.2267 11.2394C79.8352 11.2394 79.4839 11.3297 79.1728 11.5102C78.8617 11.6908 78.6158 11.9466 78.4351 12.2776C78.2545 12.6086 78.1641 13.0099 78.1641 13.4813C78.1641 13.9427 78.2545 14.344 78.4351 14.685C78.6158 15.016 78.8617 15.2718 79.1728 15.4524C79.4839 15.6329 79.8352 15.7232 80.2267 15.7232Z" fill="#3F3F3F"/>
<path id="ReportPortal_5" d="M110.412 17.6491C111.094 17.6491 111.691 17.4987 112.203 17.1977C112.715 16.8968 113.117 16.4404 113.408 15.8285C113.689 15.2066 113.829 14.4242 113.829 13.4813C113.829 12.5284 113.694 11.746 113.423 11.1341C113.152 10.5222 112.76 10.0658 112.248 9.76487C111.737 9.46394 111.124 9.31348 110.412 9.31348C109.649 9.31348 108.967 9.48902 108.364 9.8401C107.752 10.1811 107.27 10.6626 106.919 11.2845C106.558 11.9065 106.377 12.6387 106.377 13.4813C106.377 14.3339 106.558 15.0712 106.919 15.6931C107.27 16.315 107.752 16.7965 108.364 17.1376C108.967 17.4786 109.649 17.6491 110.412 17.6491ZM115.199 17.5363L115.199 9.43385H112.956V11.0889L113.001 13.4963L112.851 15.8887V17.5363H115.199ZM110.818 15.7232C110.427 15.7232 110.081 15.6329 109.779 15.4524C109.468 15.2718 109.222 15.016 109.042 14.685C108.851 14.344 108.756 13.9427 108.756 13.4813C108.756 13.0099 108.851 12.6086 109.042 12.2776C109.222 11.9466 109.468 11.6908 109.779 11.5102C110.081 11.3297 110.427 11.2394 110.818 11.2394C111.21 11.2394 111.561 11.3297 111.872 11.5102C112.183 11.6908 112.429 11.9466 112.61 12.2776C112.79 12.6086 112.881 13.0099 112.881 13.4813C112.881 13.9427 112.79 14.344 112.61 14.685C112.429 15.016 112.183 15.2718 111.872 15.4524C111.561 15.6329 111.21 15.7232 110.818 15.7232Z" fill="#3F3F3F"/>
<path id="ReportPortal_6" d="M49.3343 17.6491C48.6518 17.6491 48.0546 17.4987 47.5428 17.1977C47.0309 16.8968 46.6295 16.4404 46.3384 15.8285C46.0574 15.2066 45.9169 14.4242 45.9169 13.4813C45.9169 12.5284 46.0524 11.746 46.3233 11.1341C46.5943 10.5222 46.9858 10.0658 47.4976 9.76487C48.0095 9.46394 48.6217 9.31348 49.3343 9.31348C50.0971 9.31348 50.7796 9.48902 51.3818 9.8401C51.994 10.1811 52.4757 10.6626 52.827 11.2845C53.1883 11.9065 53.369 12.6387 53.369 13.4813C53.369 14.3339 53.1883 15.0712 52.827 15.6931C52.4757 16.315 51.994 16.7965 51.3818 17.1376C50.7796 17.4786 50.0971 17.6491 49.3343 17.6491ZM44.5469 20.4477V9.43385H46.79V11.0889L46.7449 13.4963L46.8954 15.8887V20.4477H44.5469ZM48.9278 15.7232C49.3192 15.7232 49.6655 15.6329 49.9666 15.4524C50.2777 15.2718 50.5236 15.016 50.7043 14.685C50.895 14.344 50.9903 13.9427 50.9903 13.4813C50.9903 13.0099 50.895 12.6086 50.7043 12.2776C50.5236 11.9466 50.2777 11.6908 49.9666 11.5102C49.6655 11.3297 49.3192 11.2394 48.9278 11.2394C48.5364 11.2394 48.1851 11.3297 47.874 11.5102C47.5629 11.6908 47.317 11.9466 47.1363 12.2776C46.9556 12.6086 46.8653 13.0099 46.8653 13.4813C46.8653 13.9427 46.9556 14.344 47.1363 14.685C47.317 15.016 47.5629 15.2718 47.874 15.4524C48.1851 15.6329 48.5364 15.7232 48.9278 15.7232Z" fill="#3F3F3F"/>
<path id="ReportPortal_7" d="M72.6686 17.6493C71.7151 17.6493 70.9724 17.4086 70.4405 16.9271C69.9085 16.4356 69.6426 15.7084 69.6426 14.7454V7.64355H71.9911V14.7153C71.9911 15.0564 72.0815 15.3222 72.2621 15.5128C72.4428 15.6933 72.6887 15.7836 72.9998 15.7836C73.3711 15.7836 74.2795 15.7836 74.6107 15.7836V17.6493C74.4149 17.6493 72.9483 17.6493 72.6686 17.6493ZM69.6426 11.4804V9.6748H74.6107V11.4804H69.6426Z" fill="#3F3F3F"/>
<path id="ReportPortal_8" d="M103.954 17.6493C103 17.6493 102.258 17.4086 101.726 16.9271C101.194 16.4356 100.928 15.7084 100.928 14.7454V7.64355H103.276V14.7153C103.276 15.0564 103.367 15.3222 103.547 15.5128C103.728 15.6933 103.974 15.7836 104.285 15.7836C104.656 15.7836 105.565 15.7836 105.896 15.7836V17.6493C105.7 17.6493 104.233 17.6493 103.954 17.6493ZM100.928 11.4804V9.6748H105.896V11.4804H100.928Z" fill="#3F3F3F"/>
<path id="ReportPortal_9" d="M63.6367 17.5288V9.43385H65.8799V11.7209L65.5637 11.0588C65.8046 10.4871 66.191 10.0558 66.723 9.76486C67.2549 9.46394 67.9022 9.31348 68.665 9.31348V11.4801C68.5647 11.4701 68.4743 11.4651 68.394 11.4651C68.3137 11.4551 68.2284 11.4501 68.1381 11.4501C67.4958 11.4501 66.9739 11.6356 66.5724 12.0068C66.181 12.3679 65.9853 12.9346 65.9853 13.707V17.5288H63.6367Z" fill="#3F3F3F"/>
<path id="ReportPortal_10" d="M58.2785 17.6491C57.4153 17.6491 56.6476 17.4686 55.9751 17.1075C55.3127 16.7463 54.7858 16.2548 54.3943 15.6329C54.013 15.001 53.8223 14.2838 53.8223 13.4813C53.8223 12.6688 54.013 11.9516 54.3943 11.3297C54.7858 10.6977 55.3127 10.2062 55.9751 9.85514C56.6476 9.49403 57.4153 9.31348 58.2785 9.31348C59.1316 9.31348 59.8944 9.49403 60.5668 9.85514C61.2393 10.2062 61.7662 10.6927 62.1476 11.3146C62.529 11.9365 62.7197 12.6588 62.7197 13.4813C62.7197 14.2838 62.529 15.001 62.1476 15.6329C61.7662 16.2548 61.2393 16.7463 60.5668 17.1075C59.8944 17.4686 59.1316 17.6491 58.2785 17.6491ZM58.2785 15.7232C58.6699 15.7232 59.0212 15.6329 59.3323 15.4524C59.6435 15.2718 59.8894 15.016 60.07 14.685C60.2507 14.344 60.341 13.9427 60.341 13.4813C60.341 13.0099 60.2507 12.6086 60.07 12.2776C59.8894 11.9466 59.6435 11.6908 59.3323 11.5102C59.0212 11.3297 58.6699 11.2394 58.2785 11.2394C57.8871 11.2394 57.5358 11.3297 57.2247 11.5102C56.9135 11.6908 56.6626 11.9466 56.4719 12.2776C56.2913 12.6086 56.2009 13.0099 56.2009 13.4813C56.2009 13.9427 56.2913 14.344 56.4719 14.685C56.6626 15.016 56.9135 15.2718 57.2247 15.4524C57.5358 15.6329 57.8871 15.7232 58.2785 15.7232Z" fill="#3F3F3F"/>
<path id="ReportPortal_11" d="M39.5925 17.6491C38.6692 17.6491 37.8562 17.4686 37.1536 17.1075C36.4611 16.7463 35.9242 16.2548 35.5428 15.6329C35.1614 15.001 34.9707 14.2838 34.9707 13.4813C34.9707 12.6688 35.1564 11.9516 35.5277 11.3297C35.9091 10.6977 36.426 10.2062 37.0784 9.85514C37.7307 9.49403 38.4684 9.31348 39.2914 9.31348C40.0843 9.31348 40.7969 9.484 41.4292 9.82505C42.0715 10.1561 42.5784 10.6376 42.9497 11.2695C43.3211 11.8914 43.5068 12.6387 43.5068 13.5114C43.5068 13.6017 43.5018 13.707 43.4917 13.8274C43.4817 13.9377 43.4716 14.043 43.4616 14.1433H37.0784V12.7741H42.2271L41.3238 13.1804C41.3238 12.7591 41.2385 12.393 41.0679 12.082C40.8973 11.771 40.6614 11.5303 40.3603 11.3598C40.0592 11.1792 39.7079 11.0889 39.3065 11.0889C38.905 11.0889 38.5487 11.1792 38.2376 11.3598C37.9365 11.5303 37.7006 11.7761 37.53 12.097C37.3594 12.408 37.2741 12.7791 37.2741 13.2105V13.5716C37.2741 14.0129 37.3694 14.4041 37.5601 14.7452C37.7609 15.0762 38.0369 15.332 38.3881 15.5126C38.7495 15.6831 39.171 15.7683 39.6527 15.7683C40.0843 15.7683 40.4607 15.7031 40.7819 15.5727C41.1131 15.4423 41.4142 15.2467 41.6851 14.9859L42.9347 16.3401C42.5633 16.7614 42.0966 17.0874 41.5346 17.3181C40.9725 17.5388 40.3252 17.6491 39.5925 17.6491Z" fill="#3F3F3F"/>
<g id="ReportPortal_12">
<path d="M29.5371 17.5288V9.43385H31.7803V11.7209L31.4641 11.0588C31.705 10.4871 32.0914 10.0558 32.6233 9.76486C33.1553 9.46394 33.8026 9.31348 34.5654 9.31348V11.4801C34.465 11.4701 34.3747 11.4651 34.2944 11.4651C34.2141 11.4551 34.1288 11.4501 34.0385 11.4501C33.3962 11.4501 32.8743 11.6356 32.4728 12.0068C32.0814 12.3679 31.8857 12.9346 31.8857 13.707V17.5288H29.5371Z" fill="#3F3F3F"/>
<path d="M29.5371 17.5288V9.43385H31.7803V11.7209L31.4641 11.0588C31.705 10.4871 32.0914 10.0558 32.6233 9.76486C33.1553 9.46394 33.8026 9.31348 34.5654 9.31348V11.4801C34.465 11.4701 34.3747 11.4651 34.2944 11.4651C34.2141 11.4551 34.1288 11.4501 34.0385 11.4501C33.3962 11.4501 32.8743 11.6356 32.4728 12.0068C32.0814 12.3679 31.8857 12.9346 31.8857 13.707V17.5288H29.5371Z" fill="#3F3F3F"/>
</g>
</g>
</svg>
