<svg width="28" height="28" viewBox="0 0 28 28" fill="none" xmlns="http://www.w3.org/2000/svg">
<g id="Icon/Slack">
<g id="Vector">
<path d="M16.9173 11.6663C15.949 11.6663 15.1673 10.8847 15.1673 9.91634V4.08301C15.1673 3.11467 15.949 2.33301 16.9173 2.33301C17.8857 2.33301 18.6673 3.11467 18.6673 4.08301V9.91634C18.6673 10.8847 17.8857 11.6663 16.9173 11.6663Z" fill="#A2AAB5"/>
<path d="M23.9173 11.6663H22.1673V9.91634C22.1673 8.94801 22.949 8.16634 23.9173 8.16634C24.8857 8.16634 25.6673 8.94801 25.6673 9.91634C25.6673 10.8847 24.8857 11.6663 23.9173 11.6663Z" fill="#A2AAB5"/>
<path d="M11.084 16.333C12.0523 16.333 12.834 17.1147 12.834 18.083V23.9163C12.834 24.8847 12.0523 25.6663 11.084 25.6663C10.1157 25.6663 9.33398 24.8847 9.33398 23.9163V18.083C9.33398 17.1147 10.1157 16.333 11.084 16.333Z" fill="#A2AAB5"/>
<path d="M4.08398 16.333H5.83398V18.083C5.83398 19.0513 5.05232 19.833 4.08398 19.833C3.11565 19.833 2.33398 19.0513 2.33398 18.083C2.33398 17.1147 3.11565 16.333 4.08398 16.333Z" fill="#A2AAB5"/>
<path d="M16.334 16.9163C16.334 15.948 17.1157 15.1663 18.084 15.1663H23.9173C24.8857 15.1663 25.6673 15.948 25.6673 16.9163C25.6673 17.8847 24.8857 18.6663 23.9173 18.6663H18.084C17.1157 18.6663 16.334 17.8847 16.334 16.9163Z" fill="#A2AAB5"/>
<path d="M18.084 22.1663H16.334V23.9163C16.334 24.8847 17.1157 25.6663 18.084 25.6663C19.0523 25.6663 19.834 24.8847 19.834 23.9163C19.834 22.948 19.0523 22.1663 18.084 22.1663Z" fill="#A2AAB5"/>
<path d="M11.6673 11.083C11.6673 10.1147 10.8857 9.33301 9.91732 9.33301H4.08398C3.11565 9.33301 2.33398 10.1147 2.33398 11.083C2.33398 12.0513 3.11565 12.833 4.08398 12.833H9.91732C10.8857 12.833 11.6673 12.0513 11.6673 11.083Z" fill="#A2AAB5"/>
<path d="M9.91732 5.83301H11.6673V4.08301C11.6673 3.11467 10.8857 2.33301 9.91732 2.33301C8.94899 2.33301 8.16732 3.11467 8.16732 4.08301C8.16732 5.05134 8.94899 5.83301 9.91732 5.83301Z" fill="#A2AAB5"/>
<path fill-rule="evenodd" clip-rule="evenodd" d="M7.16732 4.08301C7.16732 2.56239 8.3967 1.33301 9.91732 1.33301C11.4379 1.33301 12.6673 2.56239 12.6673 4.08301V5.83301C12.6673 6.38529 12.2196 6.83301 11.6673 6.83301H9.91732C8.3967 6.83301 7.16732 5.60363 7.16732 4.08301ZM9.91732 3.33301C9.50127 3.33301 9.16732 3.66696 9.16732 4.08301C9.16732 4.49906 9.50127 4.83301 9.91732 4.83301H10.6673V4.08301C10.6673 3.66696 10.3334 3.33301 9.91732 3.33301ZM16.9173 3.33301C16.5013 3.33301 16.1673 3.66696 16.1673 4.08301V9.91634C16.1673 10.3324 16.5013 10.6663 16.9173 10.6663C17.3334 10.6663 17.6673 10.3324 17.6673 9.91634V4.08301C17.6673 3.66696 17.3334 3.33301 16.9173 3.33301ZM14.1673 4.08301C14.1673 2.56239 15.3967 1.33301 16.9173 1.33301C18.4379 1.33301 19.6673 2.56239 19.6673 4.08301V9.91634C19.6673 11.437 18.4379 12.6663 16.9173 12.6663C15.3967 12.6663 14.1673 11.437 14.1673 9.91634V4.08301ZM23.9173 9.16634C23.5013 9.16634 23.1673 9.50029 23.1673 9.91634V10.6663H23.9173C24.3334 10.6663 24.6673 10.3324 24.6673 9.91634C24.6673 9.50029 24.3334 9.16634 23.9173 9.16634ZM21.1673 9.91634C21.1673 8.39572 22.3967 7.16634 23.9173 7.16634C25.4379 7.16634 26.6673 8.39572 26.6673 9.91634C26.6673 11.437 25.4379 12.6663 23.9173 12.6663H22.1673C21.615 12.6663 21.1673 12.2186 21.1673 11.6663V9.91634ZM1.33398 11.083C1.33398 9.56239 2.56337 8.33301 4.08398 8.33301H9.91732C11.4379 8.33301 12.6673 9.56239 12.6673 11.083C12.6673 12.6036 11.4379 13.833 9.91732 13.833H4.08398C2.56337 13.833 1.33398 12.6036 1.33398 11.083ZM4.08398 10.333C3.66794 10.333 3.33398 10.667 3.33398 11.083C3.33398 11.4991 3.66794 11.833 4.08398 11.833H9.91732C10.3334 11.833 10.6673 11.4991 10.6673 11.083C10.6673 10.667 10.3334 10.333 9.91732 10.333H4.08398ZM18.084 16.1663C17.6679 16.1663 17.334 16.5003 17.334 16.9163C17.334 17.3324 17.6679 17.6663 18.084 17.6663H23.9173C24.3334 17.6663 24.6673 17.3324 24.6673 16.9163C24.6673 16.5003 24.3334 16.1663 23.9173 16.1663H18.084ZM15.334 16.9163C15.334 15.3957 16.5634 14.1663 18.084 14.1663H23.9173C25.4379 14.1663 26.6673 15.3957 26.6673 16.9163C26.6673 18.437 25.4379 19.6663 23.9173 19.6663H18.084C16.5634 19.6663 15.334 18.437 15.334 16.9163ZM4.08398 17.333C3.66794 17.333 3.33398 17.667 3.33398 18.083C3.33398 18.4991 3.66794 18.833 4.08398 18.833C4.50003 18.833 4.83398 18.4991 4.83398 18.083V17.333H4.08398ZM1.33398 18.083C1.33398 16.5624 2.56337 15.333 4.08398 15.333H5.83398C6.38627 15.333 6.83398 15.7807 6.83398 16.333V18.083C6.83398 19.6036 5.6046 20.833 4.08398 20.833C2.56337 20.833 1.33398 19.6036 1.33398 18.083ZM11.084 17.333C10.6679 17.333 10.334 17.667 10.334 18.083V23.9163C10.334 24.3324 10.6679 24.6663 11.084 24.6663C11.5 24.6663 11.834 24.3324 11.834 23.9163V18.083C11.834 17.667 11.5 17.333 11.084 17.333ZM8.33398 18.083C8.33398 16.5624 9.56337 15.333 11.084 15.333C12.6046 15.333 13.834 16.5624 13.834 18.083V23.9163C13.834 25.437 12.6046 26.6663 11.084 26.6663C9.56337 26.6663 8.33398 25.437 8.33398 23.9163V18.083ZM15.334 22.1663C15.334 21.6141 15.7817 21.1663 16.334 21.1663H18.084C19.6046 21.1663 20.834 22.3957 20.834 23.9163C20.834 25.437 19.6046 26.6663 18.084 26.6663C16.5634 26.6663 15.334 25.437 15.334 23.9163V22.1663ZM17.334 23.1663V23.9163C17.334 24.3324 17.6679 24.6663 18.084 24.6663C18.5 24.6663 18.834 24.3324 18.834 23.9163C18.834 23.5003 18.5 23.1663 18.084 23.1663H17.334Z" fill="#A2AAB5"/>
</g>
</g>
</svg>
