<svg width="40" height="40" viewBox="0 0 40 40" fill="none" xmlns="http://www.w3.org/2000/svg">
<g id="Github">
<path id="path16" fill-rule="evenodd" clip-rule="evenodd" d="M19.999 9C13.9255 9 9 14.0495 9 20.2787C9 25.261 12.1515 29.4886 16.5226 30.9807C17.073 31.0839 17.2736 30.7356 17.2736 30.4365C17.2736 30.1686 17.2641 29.4596 17.2587 28.5186C14.199 29.1999 13.5534 27.0065 13.5534 27.0065C13.053 25.7035 12.3318 25.3566 12.3318 25.3566C11.3331 24.6573 12.4075 24.6711 12.4075 24.6711C13.5116 24.7508 14.0923 25.8336 14.0923 25.8336C15.0735 27.5569 16.6672 27.0591 17.2938 26.7704C17.3938 26.042 17.678 25.5449 17.9921 25.2631C15.5496 24.9778 12.9815 24.0106 12.9815 19.6888C12.9815 18.4571 13.4103 17.4511 14.1139 16.6625C14.0005 16.3772 13.623 15.2306 14.222 13.6777C14.222 13.6777 15.1451 13.3744 17.2465 14.8332C18.1237 14.5833 19.0651 14.4587 20.0003 14.4538C20.9349 14.4587 21.8756 14.5833 22.7541 14.8332C24.8543 13.3744 25.776 13.6777 25.776 13.6777C26.3763 15.2306 25.9989 16.3772 25.8861 16.6625C26.5911 17.4511 27.0165 18.4571 27.0165 19.6888C27.0165 24.0217 24.4444 24.9751 21.9944 25.2541C22.3888 25.6024 22.7406 26.2906 22.7406 27.343C22.7406 28.8503 22.7271 30.0668 22.7271 30.4365C22.7271 30.7384 22.9257 31.0894 23.4834 30.9793C27.8512 29.4845 31 25.2604 31 20.2787C31 14.0495 26.0745 9 19.999 9Z" fill="#A2AAB5"/>
</g>
</svg>
