<svg width="28" height="28" viewBox="0 0 28 28" fill="none" xmlns="http://www.w3.org/2000/svg">
<g id="Icon/Youtube">
<g id="Vector">
<path d="M26.1307 7.82333C25.9921 7.26964 25.7098 6.76233 25.3124 6.35264C24.915 5.94295 24.4165 5.64538 23.8673 5.49C21.8607 5 13.834 5 13.834 5C13.834 5 5.80733 5 3.80067 5.53667C3.25146 5.69205 2.75297 5.98961 2.35557 6.39931C1.95817 6.809 1.67592 7.31631 1.53733 7.87C1.17008 9.90648 0.990442 11.9724 1.00067 14.0417C0.987576 16.1266 1.16723 18.2082 1.53733 20.26C1.69012 20.7965 1.97869 21.2845 2.37517 21.6769C2.77164 22.0693 3.26262 22.3528 3.80067 22.5C5.80733 23.0367 13.834 23.0367 13.834 23.0367C13.834 23.0367 21.8607 23.0367 23.8673 22.5C24.4165 22.3446 24.915 22.0471 25.3124 21.6374C25.7098 21.2277 25.9921 20.7204 26.1307 20.1667C26.4951 18.1455 26.6747 16.0954 26.6673 14.0417C26.6804 11.9568 26.5008 9.87515 26.1307 7.82333Z" fill="#A2AAB5"/>
<path d="M11 17.4869C11 17.8703 11.4139 18.111 11.7472 17.9215L17.5741 14.6078C17.9112 14.416 17.9112 13.9302 17.5741 13.7385L11.7472 10.4248C11.4139 10.2352 11 10.4759 11 10.8594V17.4869Z" fill="white"/>
</g>
</g>
</svg>
