<svg width="28" height="28" viewBox="0 0 28 28" fill="none" xmlns="http://www.w3.org/2000/svg">
<g id="Icon/Twitter">
<path id="Vector" d="M26.8327 3.50001C25.7155 4.28807 24.4785 4.89081 23.1693 5.28501C22.4667 4.47711 21.5329 3.90449 20.4942 3.64459C19.4555 3.3847 18.3621 3.45007 17.3618 3.83188C16.3615 4.21368 15.5025 4.89348 14.9012 5.77935C14.2998 6.66522 13.985 7.71441 13.9993 8.78501V9.95168C11.9491 10.0048 9.9175 9.55013 8.08553 8.62803C6.25355 7.70594 4.67805 6.34509 3.49935 4.66668C3.49935 4.66668 -1.16732 15.1667 9.33268 19.8333C6.92996 21.4643 4.0677 22.2821 1.16602 22.1667C11.666 28 24.4993 22.1667 24.4993 8.75001C24.4983 8.42504 24.467 8.10087 24.406 7.78168C25.5967 6.60742 26.437 5.12484 26.8327 3.50001Z" fill="#A2AAB5"/>
</g>
</svg>
